<svg xmlns="http://www.w3.org/2000/svg" viewBox="0 0 256 256" width="256" height="256"><defs></defs><g>
<g>
	<g>
		<g transform="matrix(-2.508581973,0,0,2.314371388,448.892833096,-169.052086321)">
			<g>
				<g>
					<g>
						<g>
							<path d="M100.08539339865885,74.46008039510275 C102.93966413406704,74.31068586878774 104.18051006916556,75.29969558996771 104.75628505513325,76.7030325906938 C104.75628505513325,76.7030325906938 124.42212919998495,124.6345193715756 124.42212919998495,124.6345193715756 C123.21539592703162,128.6316409185606 121.70785397453083,132.81984511305745 121.78223773877811,137.200774158718 C121.78223773877811,137.200774158718 121.65428094493335,139.97447047854382 121.65428094493335,139.97447047854382 C121.65428094493335,139.97447047854382 112.54653952840113,140.33912674603096 112.54653952840113,140.33912674603096 C112.54653952840113,140.33912674603096 113.57711480317698,136.42983315545735 113.57711480317698,136.42983315545735 C113.57711480317698,136.42983315545735 113.60005233114794,128.8442298297225 113.60005233114794,128.8442298297225 C107.96886304856332,110.37875050302955 103.33317836987992,91.50850915359092 100.08539339865885,74.46008039510275 C100.08539339865885,74.46008039510275 100.08539339865885,74.46008039510275 100.08539339865885,74.46008039510275 Z" transform="matrix(1,0,0,1,0,0)" fill="#73747d"/>
						</g>
						<g>
							<g>
								<path d="M122.22462410869775,137.0854318435304 C121.75970148018007,136.96388619776747 121.17534496109397,137.10104709410814 120.75068051880226,136.89241311518708 C120.75068051880226,136.89241311518708 113.12633699219441,136.9985889273812 113.12633699219441,136.9985889273812 C112.24371126941662,137.4639345060324 111.99131995521941,137.94264835564775 111.88799098704476,139.71970276138745 C111.4400449606103,143.7838100798973 111.31796908526667,147.672350550734 110.47366018420871,151.95007708558103 C108.85869445594017,159.405799664136 107.21329567026669,163.18990595530124 106.50600982284959,168.4784885594853 C106.04062705873821,171.958271863891 106.8866449175764,175.51188593845555 109.27008969263261,178.02354356937565 C111.84456006403752,180.73650486308384 116.683620238304,182.25786817596077 119.99402160727186,182.38616442825878 C123.63909876133243,182.52743462900207 125.9676784292119,183.0577802119556 132.45155331026763,181.14638515748084 C134.5063306730426,180.540655387156 136.3155380944429,178.1625853573721 136.23233322642045,176.25932730420027 C136.14688226808562,174.30454650928596 135.32633366524328,172.87768910764294 134.25756294070743,170.18301415716996 C133.52206381437486,168.32861112837713 130.376137712944,166.44582630554964 129.3389427748043,164.06915514718276 C126.09100269514465,156.62668391878788 123.74218701816903,149.17354888435204 122.98296713642776,138.8250921824365 C123.03477437469644,137.5856427866603 122.68954673721545,137.2069774892933 122.22462410869775,137.0854318435304 C122.22462410869775,137.0854318435304 122.22462410869775,137.0854318435304 122.22462410869775,137.0854318435304 ZM120.55387725029141,159.55455659137806 C123.27646102733593,160.9969783914553 125.43354054329052,164.40264106022937 126.43176777014742,167.27148898754967 C127.34949019108831,169.9089560324419 127.19480631961369,173.528449523493 125.29264480381971,175.5730115986662 C123.51343946579232,177.4854143943444 120.20271616547325,177.6249712240965 117.62657140765805,177.19328760303324 C113.21280417711728,176.4536800966655 109.54079065309611,172.23093041736107 109.8805499735754,167.90269201190677 C110.1918032884837,163.9376311873841 113.69101029203057,159.04952573997264 117.66375528136268,158.86009994649794 C118.6751288696114,158.8118732203808 119.6463493246099,159.07374932468565 120.55387725029141,159.55455659137806 C120.55387725029141,159.55455659137806 120.55387725029141,159.55455659137806 120.55387725029141,159.55455659137806 Z" transform="matrix(1,0,0,1,0,0)" fill="#cfaa24"/>
							</g>
						</g>
					</g>
					<g>
						<path d="M99.90774536292656,74.15281425029329 C102.762017422866,74.00341991110352 103.54230463912918,75.28811585532401 104.57863731045,76.39576880887364 C104.57863731045,76.39576880887364 124.24447645145256,124.3272509307194 124.24447645145256,124.3272509307194 C123.03774581342566,128.32437667313286 121.53019987332755,132.51258017304394 121.60458570238507,136.89351153683913 C116.84426805685645,136.82591238959333 115.85230344500201,136.9094011840184 113.41882190514957,136.76115386404513 C113.41882190514957,136.76115386404513 113.42240336113491,128.53696519904952 113.42240336113491,128.53696519904952 C107.79121629011524,110.07148706942178 103.15553107575835,91.20124380961909 99.90774536292656,74.15281425029329 C99.90774536292656,74.15281425029329 99.90774536292656,74.15281425029329 99.90774536292656,74.15281425029329 Z" fill="#6a6b73"/>
					</g>
					<g>
						<path d="M121.17879802251991,157.00184056705825 C120.45949602996075,156.65507229678212 119.48270816250829,156.48209137746971 118.67653754606522,156.54357321694056 C113.45274660486962,156.94195871379998 107.9378420518592,162.05916241158343 107.89861148589057,169.95084624142748 C107.87279596013786,175.1449185196201 113.27934329471464,179.282571576284 118.37962795661997,180.26550864155956 C122.51135049123968,181.0617852641917 127.32848229629349,178.40837238737072 128.75122564588673,174.4484457402723 C129.6632169981399,171.91009915904328 128.92292428713563,166.2702719335839 126.62488739158402,162.95377379509682 C125.24343629970508,160.9600760858907 123.33669633878117,158.04213286622303 121.17879802251991,157.00184056705825 C121.17879802251991,157.00184056705825 121.17879802251991,157.00184056705825 121.17879802251991,157.00184056705825 ZM120.29165418882621,159.42175355064683 C122.42049311544702,160.34624373735414 124.24313706585758,162.5515062200741 125.2377842174028,164.59799529134762 C126.85833120953612,167.93225970282174 127.73998251469516,172.9858229422291 125.23459654499311,175.71831786155235 C123.03387312790028,178.11852924242976 118.40014914079393,178.05548601380565 115.50291123602074,176.568813153659 C112.11062310192574,174.82810859781682 109.11302761590264,170.50365814766621 109.66513888683403,166.73101741820574 C110.21748296652413,162.9568075986814 114.26878280237997,159.12755889958044 118.08023003529524,158.97704241849715 C118.83810376646329,158.9471144633501 119.58204235237099,159.11358769315075 120.29165418882621,159.42175355064683 C120.29165418882621,159.42175355064683 120.29165418882621,159.42175355064683 120.29165418882621,159.42175355064683 Z" fill="#cfaa24"/>
					</g>
					<g>
						<path d="M120.72778942911418,137.37777985153036 C120.72778942911418,137.37777985153036 121.17897959455763,147.92567811887875 122.6287860285322,153.00113069666259 C123.76784582785058,156.98874717782337 125.53004945911357,161.1978229787935 127.69300851021194,164.73620778181476 C128.98538384393692,166.85040952982308 131.15731385362005,168.6476409577026 132.53982397008485,170.70403188558907 C133.86115127528683,172.66943626027387 136.1230146910125,176.45449401792052 136.1230146910125,176.45449401792052 C136.63195213097652,175.29296569166422 135.33931744547544,172.22810113535093 134.0175925816261,169.55134976727163 C133.21771528825002,167.93145894354143 130.73558504417588,166.67664321119196 129.71518661408072,164.67491916372092 C127.63969880193804,160.60340339356003 126.14022649052049,156.35000095841337 125.05087866570011,152.07549890924884 C123.89194500819599,147.52790570524814 122.92542480760312,138.18470365409405 122.92542480760312,138.18470365409405 C122.78949239857491,136.8504461736834 122.21491041060938,137.21562448984275 121.69598417598695,136.9862384932078 C121.36138827782827,137.04119421951145 120.67939128540797,136.7594214089978 120.72778942911418,137.37777985153036 C120.72778942911418,137.37777985153036 120.72778942911418,137.37777985153036 120.72778942911418,137.37777985153036 Z" fill="#cfaa24"/>
					</g>
				</g>
				<g>
					<g>
						<path d="M78.82197340560958,89.99436647949824 C77.8597276685756,92.68569759316938 78.81340813823579,94.52978541721063 79.63009519254808,95.11247180827718 C99.52931192861524,109.31009014314168 106.47770910089821,116.84197530158508 119.90151351194163,127.706730099997 C124.07681076746076,127.69787593286856 128.5214805956225,127.45570469628001 132.69677785114163,128.78422445957813 C132.69677785114163,128.78422445957813 135.39051985361039,129.45766199470063 135.39051985361039,129.45766199470063 C135.39051985361039,129.45766199470063 138.35363035971113,120.83769084200912 138.35363035971113,120.83769084200912 C138.35363035971113,120.83769084200912 134.31302142501863,120.7030025211825 134.31302142501863,120.7030025211825 C134.31302142501863,120.7030025211825 127.03992534257213,118.54801380202025 127.03992534257213,118.54801380202025 C110.96727232332842,107.85436903857408 94.22118787247814,97.9981917667219 78.82197340560958,89.99436647949824 C78.82197340560958,89.99436647949824 78.82197340560958,89.99436647949824 78.82197340560958,89.99436647949824 Z" fill="#73747d"/>
					</g>
					<g>
						<path d="M136.08086819690652,119.81006627669558 C135.64396631865156,119.87346960031482 135.33665429090524,120.07700558098213 134.98711813986301,120.43298297584988 C134.98711813986301,120.43298297584988 132.6975346871186,127.70590002182871 132.6975346871186,127.70590002182871 C132.85350393353428,128.63925374889232 131.5035893123495,129.7874959962778 133.90795141691342,130.39965016231872 C143.60320745641457,134.09679390982728 150.06899555404834,138.48787079899603 156.2662859163247,143.73506752448156 C158.24532247787283,145.41070237749773 159.1468036446804,148.9629079664055 160.71211948152632,150.1996511949692 C162.98672083713518,151.99679484338503 164.31346244278848,152.78456343915786 165.96420308877714,153.8350680512376 C168.14476147073128,155.2227390220478 169.74669026521588,154.17676728780862 171.35170336975716,152.75798466173 C175.71081818043604,148.90467228628495 175.93783642144263,143.31613032815312 177.0079536647536,139.82881732075475 C178.34894494562923,135.45875280247355 177.25337197182398,131.75898861212 175.39337024721317,128.5142333973199 C173.67138122511278,125.51023747242016 170.50824629451745,123.67957738345422 167.04128647828475,123.12673311633989 C161.77218626858394,122.2865190425714 157.67601906276468,122.77772593667942 150.07045225985348,122.18506640056148 C145.73036414287526,121.76621058444562 141.97132260568014,120.76605184087703 137.94961829436943,120.02881628810428 C137.08364331430948,119.82331090629259 136.51776600615085,119.7466710910976 136.08086819690652,119.81006627669558 C136.08086819690652,119.81006627669558 136.08086819690652,119.81006627669558 136.08086819690652,119.81006627669558 ZM163.88503631367348,126.82673330930993 C164.41518770851053,126.80704336687677 164.93430394652205,126.82897533416644 165.42670306074433,126.89757071534814 C169.72672769907058,127.49666335727034 173.05995541197444,131.99260678836663 172.83295344701037,136.46215454751336 C172.7004583229127,139.0708582968491 171.85202077866325,142.2734056643958 169.60170327848755,143.59965898877363 C167.19587633009724,145.01755457053514 163.62798063620448,144.3902352018804 161.24961950955912,142.92674228701162 C157.80027037132822,140.8042161346466 153.8619807779096,136.46522258152754 154.9204525128007,132.55590434378655 C155.82995776856842,129.19675296416608 160.17396841179288,126.96454663029954 163.88503631367348,126.82673737832056 C163.88503631367348,126.82673737832056 163.88503631367348,126.82673330930993 163.88503631367348,126.82673330930993 Z" fill="#cfaa24"/>
					</g>
					<g>
						<path d="M118.48729631578863,118.00926458772437 C118.48729631578863,119.19943392062987 117.70337700407072,120.23159950180525 116.736364421085,120.23159950180525 C115.76935590710991,120.23159950180525 114.31200312928013,119.13209179472187 114.31200312928013,117.94191839280575 C114.31200312928013,116.75175312891088 115.56732546037529,115.98896012037812 116.534338043361,115.98896012037812 C117.50135062634672,115.98896012037812 118.48729631578863,116.81909525481888 118.48729631578863,118.00926458772437 C118.48729631578863,118.00926458772437 118.48729631578863,118.00926458772437 118.48729631578863,118.00926458772437 Z" fill="#cfaa23"/>
					</g>
				</g>
				<g>
					<path d="M160.3767027973663,124.27256650943309 C159.75815621562742,124.27191139872184 159.1487323557185,124.29409157565988 158.55586936906911,124.3392331795767 C154.4116796998078,124.65478088483587 148.21384409010716,125.79114569019566 147.37670211936347,129.8621501342859 C146.74283164359622,132.94465355025932 153.12556309627325,137.27181442046958 156.52015148946066,140.86572329931278 C159.20772487181603,143.71110105187745 162.940399220136,147.1205169197965 166.46360903930236,146.84161879327166 C169.45555255471936,146.6047698225857 173.03779558008955,144.27671794335583 174.25289167210758,141.53239000074882 C175.90324983109713,137.80503791833144 175.44734160419466,131.58151464453067 172.8267034466844,128.4591756145005 C170.1509871613016,125.27121565005837 164.70651259349597,124.27716449144373 160.3767027973663,124.27256650943309 C160.3767027973663,124.27256650943309 160.3767027973663,124.27256650943309 160.3767027973663,124.27256650943309 ZM164.3204530030489,126.59339996380731 C165.2000022025668,126.60840647500663 166.04722718164885,126.73575023164813 166.81628646655008,126.98714998434298 C170.5425887442252,128.20524900620512 172.87975520726377,133.06883161663154 173.00587012269534,136.98715050588362 C173.0926783954519,139.68416806190862 171.64245859325456,142.98905511578232 169.19753659074195,144.13090087845922 C166.25842510933035,145.50354906202756 162.21854859655105,144.14092692064878 159.6725360939745,142.1309007741511 C156.69659192835024,139.78139707088576 153.43632157602224,135.37707148310938 154.8162858407013,131.84548357105814 C156.09234384996125,128.57980550360435 160.50905143708133,126.52837717395778 164.3204530030489,126.59339996380731 C164.3204530030489,126.59339996380731 164.3204530030489,126.59339996380731 164.3204530030489,126.59339996380731 Z" fill="#cfaa24"/>
				</g>
				<g>
					<path d="M137.88842037451104,120.21187700728706 C135.9152147051941,122.16083137325586 135.52951318768237,124.57422261240526 135.01237041982586,127.26998691315657 C135.1463548018137,128.1690673636931 135.2529913633648,128.79627280005025 135.7483649243568,129.0930501592784 C135.7483649243568,129.0930501592784 145.84732378439185,133.20184350507907 150.53125143753186,136.52394247391294 C154.02784178916409,139.00391493398274 157.02417983606028,142.4888435011526 159.63418159978664,145.8894784441345 C160.60061231425243,147.14865819730585 161.06554560672976,148.63522240244038 162.11433309632412,149.8266775427046 C163.7282491961214,151.66012490395133 167.46913480789044,153.94618459349113 167.8500918590089,154.37475720698876 C167.2572532864233,154.81883275098244 160.98911331107684,151.2163504667442 159.54711291034982,148.9233164929865 C158.4015155198731,147.10162043443597 157.95461608250298,145.10192143691438 156.39352387868985,143.77393471400865 C153.25822098079607,141.10680404105278 150.04932595666833,138.95350803031215 146.7831229868434,136.68313844575732 C142.4529144276721,133.67316921325437 133.67903701695377,130.3215699173611 133.67903701695377,130.3215699173611 C132.61608530136027,130.00695401553594 132.28407844810727,129.2271850946595 132.6178797350476,128.02372230402943 C132.6178797350476,128.02372230402943 134.98645896014114,120.5683182693665 134.98645896014114,120.5683182693665 C135.52520410542638,119.90838578052126 137.20681226604574,120.06379757248078 137.88842037451104,120.21187700728706 C137.88842037451104,120.21187700728706 137.88842037451104,120.21187700728706 137.88842037451104,120.21187700728706 Z" fill="#cfaa24"/>
				</g>
				<g>
					<path d="M78.48525667255365,92.13589084248952 C89.14485907582593,98.65767056088202 101.37307016279556,105.96375614700219 112.81697538203753,112.87768879925852 C113.61998649162615,113.42525962859781 115.13868367369696,112.62638263380813 115.7935583823305,111.27491365056312 C103.61220602176309,103.01887480851883 91.16409746238742,96.89689572946713 78.82197442286224,89.92702231908493 C78.06284352389548,91.17091276481824 78.13986684334225,92.04028129974267 78.48525667255365,92.13589084248952 C78.48525667255365,92.13589084248952 78.48525667255365,92.13589084248952 78.48525667255365,92.13589084248952 Z" fill="#95959c"/>
				</g>
			</g>
		</g>
	</g>
</g></g></svg>